<?xml version="1.0" encoding="UTF-8" standalone="no"?>
<svg
   width="200mm"
   height="200mm"
   viewBox="0 0 210 297"
   version="1.1"
   id="svg1"
   sodipodi:docname="Arrow Animation.svg"
   inkscape:version="1.3.2 (091e20e, 2023-11-25, custom)"
   xmlns:inkscape="http://www.inkscape.org/namespaces/inkscape"
   xmlns:sodipodi="http://sodipodi.sourceforge.net/DTD/sodipodi-0.dtd"
   xmlns="http://www.w3.org/2000/svg"
   xmlns:svg="http://www.w3.org/2000/svg">
  <sodipodi:namedview
     id="namedview1"
     pagecolor="#ffffff"
     bordercolor="#000000"
     borderopacity="0.25"
     inkscape:showpageshadow="2"
     inkscape:pageopacity="0.0"
     inkscape:pagecheckerboard="0"
     inkscape:deskcolor="#d1d1d1"
     inkscape:document-units="mm"
     inkscape:zoom="0.97234374"
     inkscape:cx="285.3929"
     inkscape:cy="447.88688"
     inkscape:window-width="1920"
     inkscape:window-height="974"
     inkscape:window-x="-11"
     inkscape:window-y="-11"
     inkscape:window-maximized="1"
     inkscape:current-layer="svg1" />
  <defs
     id="defs1" />
  <g
     id="layer1">
    <path
       id="rect1"
       style="opacity:1;fill:#0000d6;fill-opacity:0.52597404;fill-rule:evenodd;stroke:#blue&#10;&#10;;stroke-width:0;stroke-linecap:round;stroke-opacity:1"
       d="m 62.62748,185.04632 -4e-6,-89.48322 a 7.8828571,7.8828571 148.33234 0 1 11.420432,-7.044502 l 85.742082,43.057562 a 8.7305789,8.7305789 90 0 1 0,15.60414 l -87.397972,43.88911 a 6.7398895,6.7398895 31.66766 0 1 -9.764538,-6.02309 z"
       transform="matrix(0.82686735,0,0,1,44.583945,28.638616)"
       inkscape:label="Arrow 2">
      <animateTransform
         type="translate"
         additive="sum"
         attributeName="transform"
         values="0 0;52 0"
         begin="0s"
         dur="2s"
         fill="freeze"
         keyTimes="0; 1"
         calcMode="spline"
         keySplines="0.7 0 0 1"
         repeatCount="indefinite" />
    </path>
    <path
       id="path3"
       style="opacity:1;fill:#54acff;fill-opacity:0.69155842;fill-rule:evenodd;stroke:#000000;stroke-width:0;stroke-linecap:round"
       d="m 62.62748,185.04632 -4e-6,-89.48322 a 7.8828571,7.8828571 148.33234 0 1 11.420432,-7.044502 l 85.742082,43.057562 a 8.7305789,8.7305789 90 0 1 0,15.60414 l -87.397972,43.88911 a 6.7398895,6.7398895 31.66766 0 1 -9.764538,-6.02309 z"
       transform="matrix(0.82686735,0,0,1,0.37670121,28.638616)"
       inkscape:label="Arrow 1">
      <animateTransform
         type="translate"
         additive="sum"
         attributeName="transform"
         values="0 0;22 0"
         begin="0s"
         fill="freeze"
         keyTimes="0; 1"
         calcMode="spline"
         keySplines="1 0 0 1"
         repeatCount="indefinite" />
    </path>
  </g>
</svg>
