<?xml version="1.0" encoding="UTF-8" standalone="no"?>
<!-- Created with Inkscape (http://www.inkscape.org/) -->

<svg
   width="200mm"
   height="297mm"
   viewBox="0 0 210 297"
   version="1.1"
   id="svg1"
   inkscape:version="1.3.2 (091e20e, 2023-11-25, custom)"
   sodipodi:docname="Drawing. Lettersvg.svg"
   xmlns:inkscape="http://www.inkscape.org/namespaces/inkscape"
   xmlns:sodipodi="http://sodipodi.sourceforge.net/DTD/sodipodi-0.dtd"
   xmlns:xlink="http://www.w3.org/1999/xlink"
   xmlns="http://www.w3.org/2000/svg"
   xmlns:svg="http://www.w3.org/2000/svg">
  <sodipodi:namedview
     id="namedview1"
     pagecolor="#ffffff"
     bordercolor="#999999"
     borderopacity="1"
     inkscape:showpageshadow="2"
     inkscape:pageopacity="0"
     inkscape:pagecheckerboard="0"
     inkscape:deskcolor="#d1d1d1"
     inkscape:document-units="mm"
     inkscape:zoom="0.65834035"
     inkscape:cx="396.45147"
     inkscape:cy="561.25984"
     inkscape:window-width="1920"
     inkscape:window-height="974"
     inkscape:window-x="-11"
     inkscape:window-y="-11"
     inkscape:window-maximized="1"
     inkscape:current-layer="layer1" />
  <defs
     id="defs1">
    <linearGradient
       id="linearGradient1"
       inkscape:collect="always">
      <stop
         style="stop-color:#7900ff;stop-opacity:1;"
         offset="0.00401606"
         id="stop1" />
      <stop
         style="stop-color:#00d6ff;stop-opacity:1;"
         offset="1"
         id="stop2" />
    </linearGradient>
    <linearGradient
       inkscape:collect="always"
       xlink:href="#linearGradient1"
       id="linearGradient2"
       x1="35.785413"
       y1="128.60567"
       x2="167.86733"
       y2="128.60567"
       gradientUnits="userSpaceOnUse" />
  </defs>
  <g
     inkscape:label="Layer 1"
     inkscape:groupmode="layer"
     id="layer1">
    <path
       style="fill:none;stroke:url(#linearGradient2);stroke-width:1;stroke-opacity:1"
       d="m 44.20839,96.052774 c -0.770546,16.027196 -6.430312,33.196316 -6.430312,49.433016 0,2.01393 -2.415828,6.02842 -0.401894,6.02842 0.833451,0 -1.963475,-7.51009 -0.803788,-14.4682 0.952002,-5.71202 6.967434,-15.40532 13.664409,-12.05684 10.164206,5.08211 -6.634044,26.52504 11.65494,26.52504 10.944654,0 23.387352,-16.8021 14.870094,-25.31935 -5.701604,-5.70161 -24.679682,26.52503 -5.224626,26.52503 14.211765,0 22.426019,-3.49695 30.543977,-15.67388 2.10739,-3.1611 -4.022674,-15.26826 -4.822734,-14.4682 -5.214437,5.21443 -4.146645,30.89291 4.420834,31.74966 10.02701,1.0027 13.32706,-9.42106 16.47768,-18.08525 1.62573,-4.47075 5.77519,-17.43013 2.41136,-14.06631 -13.16783,13.16783 0.57076,35.25316 18.48715,28.53451 18.92998,-7.09875 15.289,-37.55055 -2.00947,-23.71177 -20.69915,16.55931 7.84575,44.47044 30.54397,29.33829"
       id="path1" />
  </g>
</svg>
