<?xml version="1.0" encoding="UTF-8" standalone="no"?>
<!-- Created with Inkscape (http://www.inkscape.org/) -->

<svg
   width="210mm"
   height="297mm"
   viewBox="0 0 210 297"
   version="1.1"
   id="svg1"
   inkscape:version="1.3.2 (091e20e, 2023-11-25, custom)"
   sodipodi:docname="drawing-2.svg"
   xmlns:inkscape="http://www.inkscape.org/namespaces/inkscape"
   xmlns:sodipodi="http://sodipodi.sourceforge.net/DTD/sodipodi-0.dtd"
   xmlns:xlink="http://www.w3.org/1999/xlink"
   xmlns="http://www.w3.org/2000/svg"
   xmlns:svg="http://www.w3.org/2000/svg">
  <sodipodi:namedview
     id="namedview1"
     pagecolor="#ffffff"
     bordercolor="#000000"
     borderopacity="0.25"
     inkscape:showpageshadow="2"
     inkscape:pageopacity="0.0"
     inkscape:pagecheckerboard="0"
     inkscape:deskcolor="#d1d1d1"
     inkscape:document-units="mm"
     inkscape:zoom="0.65477694"
     inkscape:cx="396.31817"
     inkscape:cy="561.25984"
     inkscape:window-width="1920"
     inkscape:window-height="974"
     inkscape:window-x="-11"
     inkscape:window-y="-11"
     inkscape:window-maximized="1"
     inkscape:current-layer="layer1" />
  <defs
     id="defs1">
    <symbol
       id="ExclaimBalloon"
       style="stroke-linejoin:miter;stroke-miterlimit:10">
      <title
         id="title32">Exclaim Balloon</title>
      <path
         d="m 117,183 -88,110 146,-98 10,31 53,-46 39,49 v -46 l 69,28 -29,-57 66,-33 -68,-23.9 29,-58 -58,29 -15,-46 -48,46 -18,-42 -35,42 -20,-42 -33,40 -36.2,-42 v 50 l -55,-2 42,42 -42,29 48,9 -24,46 z"
         style="stroke:none"
         id="path33" />
      <path
         d="m 110,177 -88,110 146,-98 10,31 53,-46 39,49 v -46 l 69,28 -29,-57 66,-33 -68,-23.9 29,-58 -58,29 -15,-46 -48,46 -18,-42 -35,42 -20,-42 -33,40 -36.2,-42 v 50 l -55,-2 42,42 -42,29 48,9 -24,46 z"
         style="fill:#eeeeee;stroke-width:3.5"
         id="path34" />
      <path
         d="m 122,166 -82,102 129,-89 9,28 52,-45 30,39 v -38 l 58,23 -24,-45 57,-28 L 295,93 318,46 271,69 257,27 210,71 193,31 160,71 139,27 108,65 75.1,27 v 43 l -46,-2 38,38 -36,25 43,8 -21,41 z"
         style="fill:#ffffff;stroke:none"
         id="path35" />
    </symbol>
    <symbol
       id="AirTransportation_Inv">
      <title
         id="title136">Air Transportation</title>
      <rect
         x="0.5"
         y="0.5"
         width="71"
         height="71"
         ry="6"
         style="stroke:#ffffff"
         id="rect136" />
      <path
         d="m 39,10 v 18 l 25,15 v 7 L 39,41 v 14 l 6,4 v 6 l -9,-3 -9,3 v -6 l 6,-4 V 41 L 8,50 V 43 L 33,28 V 10 a 3,3 0 0 1 6,0 z"
         style="fill:#ffffff;stroke:none"
         id="path137" />
    </symbol>
  </defs>
  <g
     inkscape:label="Layer 1"
     inkscape:groupmode="layer"
     id="layer1">
    <use
       xlink:href="#AirTransportation_Inv"
       style="fill:#000000;stroke:#000000"
       id="use1"
       transform="matrix(0.26458333,0,0,0.26458333,95.475,131.49949)" />
  </g>
</svg>
